<svg width="119" height="32" xmlns="http://www.w3.org/2000/svg">
 <!-- Created with Method Draw - http://github.com/duopixel/Method-Draw/ -->
 <g id="Layer_1">
  <title>Layer 1</title>
  <path id="svg_1" d="m16,0c8.836,0 16,7.163 16,15.999c0,8.837 -7.164,16.001 -16,16.001c-8.837,0 -16,-7.164 -16,-16.001c0,-8.836 7.163,-15.999 16,-15.999z" fill-rule="evenodd" fill="#BDD1DF"/>
  <path id="svg_2" d="m18.979,8.94l-1.651,0s-3.313,-0.247 -3.313,3.245l0,1.806l-2,0l0.006,2.007l1.993,0l-0.03,8.014l3.03,0l0,-7.983l1.738,-0.031l0.624,-2.007l-2.394,0l0,-2.065s-0.025,-0.916 1.049,-0.916l0.938,0l0.01,-2.07z" fill-rule="evenodd" fill="#FFF"/>
  <path id="svg_3" d="m103,0c8.837,0 16,7.163 16,15.999c0,8.837 -7.163,16.001 -16,16.001s-16,-7.164 -16,-16.001c0,-8.836 7.163,-15.999 16,-15.999z" fill-rule="evenodd" fill="#BDD1DF"/>
  <path id="svg_4" d="m108.007,22.979l0,-6.402c0,-1.397 -0.966,-2.351 -2.188,-2.351c-0.933,0 -1.471,0.643 -1.716,1.264c-0.089,0.222 -0.111,0.533 -0.111,0.844l0,6.645l-2.977,0l0,-10.992l2.687,0l0.321,1.122c0.444,-0.71 1.406,-1.503 3.227,-1.503c2.221,0 3.756,1.295 3.756,4.49l0,6.883l-2.999,0zm-10.439,-12.37c-1.126,0 -1.881,-0.717 -1.881,-1.691c0,-0.997 0.751,-1.704 1.9,-1.704c1.15,0 1.854,0.707 1.877,1.704c0,0.974 -0.7,1.691 -1.896,1.691zm1.439,12.401l-3.011,0l0,-11.023l3.011,0l0,11.023z" fill-rule="evenodd" fill="#FFF"/>
  <path id="svg_5" d="m60,0c8.836,0 16,7.163 16,15.999c0,8.837 -7.164,16.001 -16,16.001c-8.837,0 -16,-7.164 -16,-16.001c0,-8.836 7.163,-15.999 16,-15.999z" fill-rule="evenodd" fill="#BDD1DF"/>
  <path id="svg_6" d="m68.984,11.656a6.864,6.864 0 0 1 -1.999,0.556a3.537,3.537 0 0 0 1.531,-1.956c-0.673,0.406 -1.418,0.7 -2.211,0.858a3.452,3.452 0 0 0 -2.541,-1.116c-1.923,0 -3.482,1.583 -3.482,3.535c0,0.277 0.031,0.547 0.09,0.805c-2.893,-0.147 -5.459,-1.554 -7.175,-3.693a3.556,3.556 0 0 0 -0.472,1.777c0,1.226 0.615,2.308 1.549,2.942a3.433,3.433 0 0 1 -1.577,-0.441l0,0.044c0,1.713 1.2,3.141 2.792,3.466a3.418,3.418 0 0 1 -1.572,0.061c0.443,1.404 1.729,2.427 3.253,2.455a6.92,6.92 0 0 1 -5.154,1.463a9.734,9.734 0 0 0 5.336,1.589c6.403,0 9.905,-5.387 9.905,-10.058c0,-0.153 -0.003,-0.306 -0.01,-0.458a7.131,7.131 0 0 0 1.737,-1.829z" fill-rule="evenodd" fill="#FFF"/>
 </g>
</svg>