<svg xmlns="http://www.w3.org/2000/svg" width="163" height="32">
    <path fill="#BDD1DF" fill-rule="evenodd" d="M16 0c8.836 0 16 7.163 16 15.999C32 24.836 24.836 32 16 32 7.163 32 0 24.836 0 15.999 0 7.163 7.163 0 16 0z"/>
    <path fill="#FFF" fill-rule="evenodd" d="M18.979 8.94h-1.651s-3.313-.247-3.313 3.245v1.806h-2l.006 2.007h1.993l-.03 8.014h3.03v-7.983l1.738-.031.624-2.007h-2.394v-2.065s-.025-.916 1.049-.916h.938l.01-2.07z"/>
    <path fill="#BDD1DF" fill-rule="evenodd" d="M103 0c8.837 0 16 7.163 16 15.999C119 24.836 111.837 32 103 32s-16-7.164-16-16.001C87 7.163 94.163 0 103 0z"/>
    <path fill="#FFF" fill-rule="evenodd" d="M108.007 22.979v-6.402c0-1.397-.966-2.351-2.188-2.351-.933 0-1.471.643-1.716 1.264-.089.222-.111.533-.111.844v6.645h-2.977V11.987h2.687l.321 1.122c.444-.71 1.406-1.503 3.227-1.503 2.221 0 3.756 1.295 3.756 4.49v6.883h-2.999zm-10.439-12.37c-1.126 0-1.881-.717-1.881-1.691 0-.997.751-1.704 1.9-1.704 1.15 0 1.854.707 1.877 1.704 0 .974-.7 1.691-1.896 1.691zm1.439 12.401h-3.011V11.987h3.011V23.01z"/>
    <path fill="#BDD1DF" fill-rule="evenodd" d="M60 0c8.836 0 16 7.163 16 15.999C76 24.836 68.836 32 60 32c-8.837 0-16-7.164-16-16.001C44 7.163 51.163 0 60 0z"/>
    <path fill="#FFF" fill-rule="evenodd" d="M68.984 11.656a6.864 6.864 0 0 1-1.999.556 3.537 3.537 0 0 0 1.531-1.956c-.673.406-1.418.7-2.211.858a3.452 3.452 0 0 0-2.541-1.116c-1.923 0-3.482 1.583-3.482 3.535 0 .277.031.547.09.805-2.893-.147-5.459-1.554-7.175-3.693a3.556 3.556 0 0 0-.472 1.777c0 1.226.615 2.308 1.549 2.942a3.433 3.433 0 0 1-1.577-.441v.044c0 1.713 1.2 3.141 2.792 3.466a3.418 3.418 0 0 1-1.572.061c.443 1.404 1.729 2.427 3.253 2.455a6.92 6.92 0 0 1-5.154 1.463 9.734 9.734 0 0 0 5.336 1.589c6.403 0 9.905-5.387 9.905-10.058 0-.153-.003-.306-.01-.458a7.131 7.131 0 0 0 1.737-1.829z"/>
    <path fill="#BDD1DF" fill-rule="evenodd" d="M147 0c8.837 0 16 7.163 16 15.999C163 24.836 155.837 32 147 32s-16-7.164-16-16.001C131 7.163 138.163 0 147 0z"/>
    <path fill="#FFF" fill-rule="evenodd" d="M139.609 12.178c.487.27 6.238 4.011 6.489 4.149.251.139.577.207.905.207.328 0 .654-.068.905-.207.251-.138 6.002-3.879 6.489-4.149.488-.27.95-1.118.054-1.118h-14.896c-.895 0-.434.848.054 1.118zm14.995 2.06c-.554.298-6.357 3.967-6.696 4.149-.339.183-.577.207-.905.207-.328 0-.566-.024-.905-.207-.339-.182-6.142-3.851-6.696-4.149-.39-.21-.386.036-.386.226v7.555c0 .432.557.988.99.988H154c.433 0 .991-.556.991-.988v-7.555c0-.19.003-.436-.387-.226z"/>
</svg>
