<svg 
 xmlns="http://www.w3.org/2000/svg"
 xmlns:xlink="http://www.w3.org/1999/xlink"
 width="120px" height="124px">
<path fill-rule="evenodd"  fill="rgb(216, 72, 72)"
 d="M120.000,13.999 L56.000,13.999 L56.000,80.000 L120.000,80.000 L99.844,47.000 L120.000,13.999 Z"/>
<path fill-rule="evenodd"  fill="rgb(170, 31, 31)"
 d="M56.000,66.749 L56.000,80.000 L73.000,69.000 L56.000,66.749 Z"/>
<path fill-rule="evenodd"  fill="rgb(245, 123, 113)"
 d="M73.000,68.999 L25.000,68.999 L6.656,4.999 L73.000,4.999 L73.000,68.999 Z"/>
<path fill-rule="evenodd"  fill="rgb(218, 234, 242)"
 d="M4.435,0.180 C7.103,-0.534 9.845,1.049 10.559,3.716 L41.100,117.695 C41.815,120.362 40.232,123.104 37.564,123.819 C34.897,124.533 32.155,122.951 31.441,120.283 L0.900,6.304 C0.185,3.637 1.768,0.895 4.435,0.180 Z"/>
</svg>